# xmcd CD database file
#
# Track frame offsets:
#	150
#	27750
#	57972
#	78565
#	105387
#	134679
#	165022
#	192184
#	218785
#
# Disc length: 3157 seconds
#
# Revision: 0
# Processed by: cddbd v1.5PL3 Copyright (c) Steve Scherf et al.
# Submitted via: CDex 1.51
#
DISCID=6e0c5309
DTITLE=Shuji Atsuta quintet - Blues on my Mind
DYEAR=1900
DGENRE=Jazz
TTITLE0=coronation
TTITLE1=blues on my mind
TTITLE2=up jumped spring
TTITLE3=quintessence
TTITLE4=the more I see you
TTITLE5=spring can really hang you up the most
TTITLE6=no me esqueca
TTITLE7=clover leaf
TTITLE8=farmer's market
EXTD=
EXTT0=
EXTT1=
EXTT2=
EXTT3=
EXTT4=
EXTT5=
EXTT6=
EXTT7=
EXTT8=
PLAYORDER=
